<?xml version="1.0" encoding="utf-8"?>
<!-- Generator: Adobe Illustrator 22.1.0, SVG Export Plug-In . SVG Version: 6.00 Build 0)  -->
<svg version="1.1" id="Layer_1" xmlns="http://www.w3.org/2000/svg" xmlns:xlink="http://www.w3.org/1999/xlink" x="0px" y="0px"
	 viewBox="0 0 719.6 262.1" style="enable-background:new 0 0 719.6 262.1;" xml:space="preserve">
<style type="text/css">
	.st0{fill:none;stroke:#FFFFFF;stroke-miterlimit:10;stroke-width:5}
</style>
<g>
	<path class="st0" d="M268.6,32.2c0.5-0.4,1.1-0.6,1.7-0.6"/>
	<path class="st0" d="M322,31.5c1.2-0.2,2.2-1.3,2.2-2.5"/>
	<path class="st0" d="M321.5,31.6c0.2,0,0.3,0,0.5,0"/>
	<path class="st0" d="M324.2,28.9c0,0,0,0.5,0,0.4"/>
	<path class="st0" d="M321.6,31.6c1.4,0,2.6-1.2,2.7-2.6"/>
	<path class="st0" d="M253.3,53c1.4,0,2.6-1.2,2.7-2.6"/>
	<path class="st0" d="M399.7,125.4c0-0.1,0-0.1,0-0.2"/>
	<path class="st0" d="M191.2,125.2c0,0.1,0,0.1,0,0.2"/>
	<rect x="282.3" y="143.7" class="st0" width="41.1" height="30.8"/>
	<path class="st0" d="M424.7,184.3c0-0.1,0-0.1,0-0.2"/>
	<path class="st0" d="M639.4,184.3c0-0.1,0-0.1,0-0.2"/>
	<rect x="329.2" y="150.9" class="st0" width="29.4" height="20.8"/>
	<path class="st0" d="M223.9,75.9c0.1-3.3,0.1-6.6,0.2-9.9"/>
	<path class="st0" d="M226.1,66L226.1,66C226,66,226,66,226.1,66c-0.4,0-0.8,0-1.2,0l-0.2,9.9c0.1-3.3,0.1-6.6,0.2-9.9
		C225.3,66,225.7,66,226.1,66c-0.1,3.3-0.1,6.6-0.2,9.9c-0.4,0-0.8,0-1.2,0l0.1,0c0,0,0,0,0,0"/>
	<path class="st0" d="M409,185.1c-8.2,0-16.3,0-24.5,0c0-9.9,0-19.7,0-29.6c3.9-3.9,7.8-7.8,11.7-11.7c4.3,0,8.6,0,12.9,0
		C409,157.6,409,171.3,409,185.1z"/>
	<path class="st0" d="M622.5,184c0,0.1,0,0.1,0,0.2"/>
	<path class="st0" d="M684.7,184c0,0.1,0,0.1,0,0.2"/>
	<path class="st0" d="M622.5,184c-0.1-5.9-0.2-11.9-0.3-17.8c-0.1-4-0.1-8-0.2-12c0-1.7,0.4-4.3-0.3-6c-1.1-2.7-7.2-1.6-9.4-1.6
		c-6.5,0-13,0-19.5,0c-17,0-34,0-51,0c-6.2,0-12.5,0-18.7,0c-2.7,0-7.9,1-8.3-2.8c-0.3-2.9-0.1-5.9-0.2-8.8
		c-0.1-4.1-0.1-8.1-0.2-12.2c0-2.4,0.4-5.4-2.9-5.7c-2.6-0.2-5.3,0-7.9,0c-7.1,0-14.3,0.4-21.3,0c-3.3-0.2-3-3-3.1-5.4
		c-0.1-4.1-0.1-8.2-0.2-12.3c0-2,0.7-6.7-0.9-8.3c-1.2-1.2-3.7-0.8-5.3-0.8c-7.6,0-15.2,0-22.9,0c-6.7,0-13.3,0-20,0
		c-1.9,0-3.5,0.6-3.7,2.8c-0.1,1.2,0,2.5-0.1,3.7c-0.3,14.5-0.5,29.1-0.8,43.6c-0.2,13.7-0.5,27.5-0.7,41.2c0,0.8,0,1.5,0,2.3"/>
	<path class="st0" d="M169.7,233.2C169.7,233.2,169.7,233.2,169.7,233.2"/>
	<path class="st0" d="M187.6,246.6c-8.2,0-15.6-5.5-17.9-13.4h0c1.7,5.6,6,10.2,11.4,12.2c3,1.1,6.1,1.2,9.3,1.2c3.6,0,7.1,0,10.7,0
		c7,0,14,0,21,0c3.6,0,7.1,0,10.7,0c3.3,0,6.6,0.3,9.9-0.5c6.5-1.5,11.7-6.5,13.6-12.9l0,0c-2.3,7.8-9.7,13.4-17.9,13.4"/>
	<path class="st0" d="M317.1,66L317.1,66l-8.8,0c0.1,3.3,0.1,6.6,0.2,9.9h8.8C317.2,72.6,317.1,69.3,317.1,66z"/>
	<path class="st0" d="M245.3,66c-0.1,3.3-0.1,6.6-0.1,9.9h7.7c0-3.3,0.1-6.6,0.1-9.9H245.3l-0.1,9.9l0,0"/>
	<ellipse class="st0" cx="372.2" cy="163.6" rx="12.9" ry="11.5"/>
	<path class="st0" d="M236.1,75.9c0-3.3,0.1-6.6,0.1-9.9h-7.7c-0.1,3.3-0.1,6.6-0.2,9.9C231,75.9,233.6,75.9,236.1,75.9
		c-2.6,0-5.1,0-7.7,0"/>
	<path class="st0" d="M244.2,75.9c0-3.3,0.1-6.6,0.1-9.9h-7.2c-0.1,3.3-0.1,6.6-0.1,9.9C239.4,75.9,241.8,75.9,244.2,75.9z"/>
	<path class="st0" d="M615.2,246.6c8.2,0,15.6-5.5,17.9-13.4H633c-1.7,5.6-6,10.2-11.4,12.2c-3,1.1-6.1,1.2-9.3,1.2
		c-3.6,0-7.1,0-10.7,0c-7.1,0-14.3,0-21.4,0c-3.6,0-7.1,0-10.7,0c-3,0-6.2,0.2-9.1-0.4c-6.6-1.4-12-6.5-14-12.9"/>
	<path class="st0" d="M297.4,66c0.1,3.3,0.1,6.6,0.2,9.9h-8.8c-0.1-3.3-0.1-6.6-0.2-9.9H297.4l0.2,9.9l0,0c0,0-8.8,0-8.8,0l0,0"/>
	<path class="st0" d="M279.4,66h8.2c0.1,3.3,0.1,6.6,0.2,9.9h-8.4L279.4,66z"/>
	<path class="st0" d="M278.3,75.9l0-9.9h-9.8c0,3.3-0.1,6.6-0.1,9.9H278.3z"/>
	<path class="st0" d="M307.3,66L307.3,66l-8.8,0c0.1,3.3,0.1,6.6,0.2,9.9h8.8C307.4,72.6,307.3,69.3,307.3,66z"/>
	<path class="st0" d="M258.2,66l0.1,0L258.2,66C258.2,66,258.2,66,258.2,66l0.1,0c0,3.3-0.1,6.6-0.1,9.9c-1,0-1.9,0-2.9,0l0.1,0
		c0,0,0,0,0,0l2.7,0h-2.8c0-3.3,0.1-6.6,0.1-9.9H258.2z"/>
	<path class="st0" d="M261.5,66c0,3.3-0.1,6.6-0.1,9.9c1,0,1.9,0,2.9,0c0-3.3,0.1-6.6,0.1-9.9c0,0-0.1,0-0.1,0H261.5
		c1,0,1.9,0,2.9,0L261.5,66z"/>
	<path class="st0" d="M261.1,75.9l0.1,0c0-3.3,0.1-6.6,0.1-9.9l-0.1,0c0,0,0,0,0,0h0.1c-0.9,0-1.8,0-2.7,0c0,3.3-0.1,6.6-0.1,9.9
		c0.9,0,1.8,0,2.7,0"/>
	<path class="st0" d="M226.1,125.4c6.6,0,13.3,0,19.9,0c15.5,0,31,0,46.5,0c18,0,36,0,54,0c13.9,0,27.7,0,41.6,0
		c7.2,0,14.4,0,21.7,0c1.2,0,2.4,0,3.5,0c0,14.1,0,28.1,0,42.2c0,3.2,0,6.3,0,9.5c0,2.1-0.7,5.5,1,7.1c1.9,1.7,6.2,0.8,8.6,0.8
		c3.2,0,6.4,0,9.7,0c12.9,0,25.8,0,38.7,0c51.3,0,102.6,0,154,0c27.4,0,54.8,0,82.2,0c0,5.2,0,10.5,0,15.7c0,4.2,0,8.4,0,12.5
		c0,3.2-0.3,6.6-4.1,7.6c-0.3,0.3-1.8,0.4-2.2,0.6c-1.2,0.3-2.4,0.6-3.6,0.9c-2.5,0.6-5,1.3-7.5,1.9c0,0,0,0,0,0c0,0,0,0,0,0
		c0,0,0,0,0,0c-11,2.7-21.9,5.5-32.9,8.2c-4.7,1.2-9.7,0.8-14.5,0.8c-4.8,0-9.6,0-14.4,0c-9.9,0-19.8,0-29.7,0
		c-19.8,0-39.7,0-59.5,0c-39.7,0-79.5,0-119.2,0c-39.5,0-78.9,0-118.4,0c-39.1,0-78.2,0-117.3,0c-37.7,0-75.4,0-113.1,0
		c-2.5,0-5.1,0.4-7-1.6l0,0c-9.6-10-18.2-20.8-25.8-32.4c-7.9-11.9-14.7-24.7-20-38c-2.8-7.1-6.1-14.8-6.1-22.5c0-4.4,0-8.8,0-13.2
		c27.8,0,55.7,0,83.5,0s55.7,0,83.5,0C194.8,125.4,210.4,125.4,226.1,125.4z"/>
	<path class="st0" d="M684.7,184c-0.1-5.5-0.2-11-0.3-16.6c-0.1-5.8,0.3-11.9-0.3-17.7c-0.1-1.4-0.9-2.8-1.4-4.1
		c-1.2-3.2-2.4-6.3-3.6-9.5c-2.6-6.8-5.1-13.6-7.7-20.3c-0.7-1.8-1.1-3.8-3.4-4c-2.5-0.2-5.1,0-7.7,0c-4,0-8,0-11.9,0
		c-1.8,0-5.4-0.7-6.9,0.6c-1.2,1-1,2.7-1,4.1c0,2.3-0.1,4.5-0.1,6.8c-0.1,7.3-0.3,14.6-0.4,22c-0.2,12.7-0.4,25.4-0.7,38.1
		c0,0.2,0,0.5,0,0.7"/>
	<line class="st0" x1="270.7" y1="31.6" x2="321.5" y2="31.6"/>
	<path class="st0" d="M324.2,29.3c0,0.3,0,0.5,0,0.8"/>
	<path class="st0" d="M350.1,79.7C350.1,79.7,350,79.7,350.1,79.7"/>
	<path class="st0" d="M256,50.3c0-2.3,0.1-4.5,0.1-6.8"/>
	<polyline class="st0" points="268.6,32.2 268.6,32.2 268.6,32.2 	"/>
	<path class="st0" d="M257.1,41.5c3.8-3.1,7.7-6.2,11.5-9.3"/>
	<path class="st0" d="M270.7,31.6c-0.1,0-0.3,0-0.4,0"/>
	<path class="st0" d="M350,79.7c0,0-0.1,0-0.1,0"/>
	<path class="st0" d="M350,79.7c0,0,0.1,0,0.1,0"/>
	<line class="st0" x1="324.2" y1="30.1" x2="324.2" y2="30.1"/>
	<line class="st0" x1="324.2" y1="28.9" x2="324.2" y2="28.9"/>
	<path class="st0" d="M256.1,43.5c0-0.8,0.4-1.5,1-2"/>
	<path class="st0" d="M191.2,125.2c0.1-3.6,1.5-6.6,2.8-9.9c2.2-5.7,4.3-11.3,6.5-17c0.7-1.8,1.4-3.6,2.1-5.4
		c0.7-1.8,1.9-2.4,3.8-2.4c3.9,0,7.8,0,11.7,0c13.7,0,27.3,0,41,0c22.5,0,45,0,67.6,0c16.9,0,33.8,0,50.7,0c2.8,0,5.6,0,8.4,0
		c2.9,0,5.8,0,8.6,0c2.1,0,4.5-0.2,4.8,2.6c0.4,3.8,0.1,7.9,0.2,11.7c0.1,5.8,0.2,11.6,0.3,17.4c0,1,0,2.1,0.1,3.1"/>
	<path class="st0" d="M213.2,90.4c1.2,0,1.9-0.8,2.7-1.5c2.7-2.6,5.4-5.2,8.1-7.8c1.6-1.6,3.2-1.4,5.4-1.4c10.1,0,20.2,0,30.2,0
		c16.9,0,33.8,0,50.7,0c15.3,0,30.6,0,45.9,0c4.4,0,8.7,0,13.1,0c0.9,0,1.8-0.1,2.7,0c3.5,0.2,2.9,3.8,3,6.3c0,1.9,0.1,4.4,2.7,4.4"
		/>
	<path class="st0" d="M350.1,79.7c1.8-0.2,0.8-7.9,0.8-9.5c0-2.1-0.1-4.2-0.1-6.3c-0.1-2.8-0.1-5.6-0.2-8.3
		c-0.5-4.1-0.2-8.7-0.2-12.9c-0.1-6.6-0.2-13.1-0.3-19.7c0-1.6-0.1-3.3-0.1-4.9l-0.1,0c0-2.7-2.6-2.6-4.5-2.6c-2.5,0-5,0-7.5,0
		c-2.7,0-5.4,0-8,0c-1.4,0-3.4-0.3-4.6,0.6c-1.3,1.1-1,3.4-1,4.9c0,2.6-0.1,5.1-0.1,7.7c-0.1,3.4-0.1,6.8-0.2,10.3
		c-0.1,2.9-0.1,5.8-0.2,8.7c0,2,0.3,5.2-2.7,5.2h0.3h-0.3h0c-9.6,0-19.2,0-28.9,0c-12.9,0-25.8,0-38.7,0c-5.3,0-10.7,0.3-16,0
		c-1.8,0-3.4,2-4.7,3c-2.4,2-4.8,3.9-7.3,5.9c-1.1,0.9-2,1.5-2.2,3c-0.2,1.5-0.1,3.1-0.1,4.6c-0.1,3-0.1,6.1-0.2,9.1l0.2-13.7
		c0,0,0,0,0,0c0,2.7-0.1,5.5-0.1,8.2c0,1.1-0.9,6.5,1,6.6c0.7,0,1.4,0,2.2,0"/>
	<path class="st0" d="M223.9,75.9c-0.2,0-0.3,0-0.5,0c0,0,0,0,0.1,0c0,0,0,0,0,0l0,0c0,0,0,0,0,0c-0.1,0-0.1,0-0.2,0
		c0.1-3.3,0.1-6.6,0.2-9.9c0.1,0,0.1,0,0.2,0l-0.1,0c0.2,0,0.3,0,0.5,0c-0.2,0-0.3,0-0.4,0h1.2l-0.1,0c0,0,0,0,0,0l-0.7,0
		c0.3,0,0.5,0,0.8,0c-0.1,3.3-0.1,6.6-0.2,9.9C224.4,75.9,224.1,75.9,223.9,75.9c0.3,0,0.6,0,0.8,0"/>
</g>
</svg>
