<?xml version="1.0" encoding="utf-8"?>
<!-- Generator: Adobe Illustrator 22.1.0, SVG Export Plug-In . SVG Version: 6.00 Build 0)  -->
<svg version="1.1" id="Layer_1" xmlns="http://www.w3.org/2000/svg" xmlns:xlink="http://www.w3.org/1999/xlink" x="0px" y="0px"
	 viewBox="0 0 719.6 262.1" style="enable-background:new 0 0 719.6 262.1;" xml:space="preserve">
<style type="text/css">
	.st0{fill:none;stroke:#FFFFFF;stroke-width:3;stroke-miterlimit:10;}
</style>
<path class="st0" d="M367.9,84.9c0,1.2-0.7,1.8-1.6,1.8h-40.1c-0.4,0-0.8-0.2-1.1-0.5c-0.3-0.3-0.5-0.7-0.5-1.1v-8.5"/>
<path class="st0" d="M443.5,206.9c-5,0-10.1,0-15.1,0c-14.6,0-29.1,0-43.7,0c-7.3,0-14.5,0-21.8,0c-0.8,0-1.7,0-2.5,0"/>
<path class="st0" d="M605.1,54.8c-1.3,0-1.3,1.6-1.3,2.1"/>
<path class="st0" d="M603.8,56.9c-0.2,15.8-0.4,31.7-0.7,47.5"/>
<path class="st0" d="M680.9,104.4l-0.2-14.1c0-1.1-0.9-2-2.1-2h-14.1c-0.5,0-1.1-0.2-1.5-0.6s-0.6-0.9-0.6-1.5V74.9
	c0-0.5-0.2-1.1-0.6-1.5c-0.4-0.4-0.9-0.6-1.5-0.6h-14.2c-0.5,0-0.9-0.1-1.3-0.4c-0.1-0.1-0.1-0.1-0.2-0.2c-0.2-0.2-0.3-0.4-0.4-0.6
	c0-0.1-0.1-0.1-0.1-0.2c-0.1-0.2-0.1-0.5-0.1-0.7V56.9c0-0.5-0.2-1.1-0.6-1.5c-0.4-0.4-0.9-0.6-1.5-0.6H639c0,0-37.1,0-38,0
	c0,0,0,0-0.1,0c0,0,0,0-0.1,0h-0.1c-0.1,0-0.2,0-0.3,0s-0.2,0-0.3,0.1c-0.3,0.1-0.5,0.3-0.7,0.4c-0.4,0.4-0.6,0.9-0.6,1.4
	c0,1.8-0.6,35-0.9,47.5"/>
<path class="st0" d="M676.8,206.9c-2.6,8.9-10.4,12.8-19,12.8c-11.9,0-23.9,0-35.8,0c-5.5,0-11.7,0.8-17-1
	c-5.4-1.9-9.6-6.3-11.3-11.8"/>
<path class="st0" d="M210.1,206.9c-2.1,6.9-8.3,12-15.4,12.7c-4.3,0.4-8.8,0.1-13.2,0.1c-4.3,0-8.6,0-13,0c-8.5,0-17.2,0.6-25.7-0.1
	c-7.3-0.5-13.8-5.7-15.9-12.8"/>
<path class="st0" d="M612.5,42.1C612.6,42.1,612.6,42.1,612.5,42.1c0.1,0.1,0.1,0.2,0.2,0.3c0,0.1,0.1,0.2,0.1,0.3
	c0,0.2,0.1,0.4,0.1,0.6c0,0.4,0.1,0.9,0.1,1.3v10.2"/>
<path class="st0" d="M604,54.8l0.3-10.2c0-0.7,0.3-1.3,0.8-1.8c0.2-0.2,0.5-0.4,0.9-0.6c0.2-0.1,0.3-0.1,0.5-0.1c0.1,0,0.1,0,0.2,0
	c0.1,0,0.1,0,0.2,0h0.1h0.1c1.9,0,3.8,0,5.7,0h22.6c0.5,0,0.9,0,1.4,0c0.2,0,0.4,0,0.6,0.1c0.7,0.3,1.9,0.7,1.9,2.4l0.2,10.2"/>
<line class="st0" x1="281" y1="75.6" x2="281" y2="75.6"/>
<path class="st0" d="M196.2,88L196.2,88c0,0.1,0,0.2,0,0.2C196.2,88.1,196.2,88,196.2,88c0.2-0.8,0.8-1.3,1.5-1.3h39
	c0.4,0,0.8-0.2,1.1-0.5s0.5-1.1,0.5-1.1v-8.5"/>
<path class="st0" d="M454.3,76.6l-0.1,8.6c0,0.4-0.2,0.8-0.5,1.1c-0.3,0.3-0.7,0.5-1.1,0.5h-40.1c-0.4,0-0.8-0.2-1.1-0.5
	s-0.5-0.7-0.5-1.1v-8.6"/>
<path class="st0" d="M280,75.1L280,75.1L280,75.1L280,75.1"/>
<path class="st0" d="M368.4,75.1L368.4,75.1"/>
<path class="st0" d="M360.4,206.9c2.3,7.6,9.3,12.6,17.2,12.8c7.3,0.2,14.6,0,21.8,0c9,0,17.9,0.2,26.9,0
	c7.9-0.2,14.9-5.2,17.2-12.8"/>
<path class="st0" d="M165.9,117.7c0.9,0.6,2,1.7,3.1,2c1.1,0.4,2.8,0.1,3.9,0.1c2.7,0,377.1,0,387.6,0c1.9,0,4.4,0.4,6.3-0.1
	c2.1-0.6,4.5-2.9,6.4-4.2c4.3-2.9,8.7-5.7,13-8.6c1.8-1.2,3.1-2.4,5.2-2.5c2.3-0.1,4.7,0,7,0c5.1,0,85.6,0,104.7,0c1.5,0,3,0,4.5,0
	c-0.7,19-3.1,89.7-3.3,95.5c-0.1,2.6-0.3,5.3-3,6.6s-7.1,0.5-9.9,0.5c-52.5,0-629.4,0-643.2,0c-3.4,0-8.3,1-10.3-2.6
	c-1.3-2.3-1.8-5.3-2.7-7.7s-1.9-4.8-2.8-7.1c-10.4-26.9-16-55.6-19.8-84.3c-0.1-0.4,0.3-0.8,0.7-0.8h132.2
	C145.5,104.5,159.1,113.3,165.9,117.7z"/>
<path class="st0" d="M367.9,76.6v20c0,0.4-0.2,0.8-0.5,1.1c-0.3,0.3-0.7,0.5-1.1,0.5h-40.1c-0.6,0-1.1-0.3-1.4-0.8
	c-0.1-0.2-0.2-0.5-0.2-0.7v-8.5c0-0.8-0.7-1.5-1.5-1.5H283c-0.4,0-0.8-0.2-1.1-0.5c-0.3-0.3-0.5-0.7-0.5-1.1v-8.5"/>
<polygon class="st0" points="603.5,62.3 599,62.3 598.9,66.9 603.4,66.9 "/>
<path class="st0" d="M539.1,76.7c0-0.8-0.7-1.5-1.5-1.5h-38.8c0,0.8-0.6,1.4-1.4,1.4c-0.8,0-1.4-0.6-1.4-1.4h-40.4
	c0,0.8-0.6,1.4-1.4,1.4c-0.8,0-1.4-0.6-1.4-1.4h-40.4c0,0.8-0.6,1.4-1.4,1.4c-0.8,0-1.4-0.6-1.4-1.4h-40.4c0,0.8-0.6,1.4-1.4,1.4
	c-0.8,0-1.4-0.6-1.4-1.4h-40.4c0,0.8-0.6,1.4-1.4,1.4c-0.8,0-1.4-0.6-1.4-1.4h-40.4c0,0.8-0.6,1.4-1.4,1.4c-0.8,0-1.4-0.6-1.4-1.4
	h-40.4c0,0.8-0.6,1.4-1.4,1.4c-0.8,0-1.4-0.6-1.4-1.4h-38.8c-0.1,0-0.3,0-0.4,0c-0.2,0-0.4,0.1-0.5,0.2c-0.2,0.1-0.3,0.2-0.4,0.4
	c-0.1,0-0.1,0.1-0.1,0.1c-0.1,0.2-0.2,0.5-0.2,0.7l-0.3,8.5c-0.1,0.5-0.1,1-0.1,1.5c0,0.3,0,0.5,0,0.8c0,0.1,0,0.3,0,0.4
	c0,0.1,0,0.2,0,0.3s0,0.1,0,0.1l-1.1,31.6h345.5L539.1,76.7z"/>
</svg>
