<?xml version="1.0" encoding="utf-8"?>
<!-- Generator: Adobe Illustrator 22.1.0, SVG Export Plug-In . SVG Version: 6.00 Build 0)  -->
<svg version="1.1" id="Layer_1" xmlns="http://www.w3.org/2000/svg" xmlns:xlink="http://www.w3.org/1999/xlink" x="0px" y="0px"
	 viewBox="0 0 719.6 262.1" style="enable-background:new 0 0 719.6 262.1;" xml:space="preserve">
<style type="text/css">
	.st0{fill:none;stroke:#FFFFFF;stroke-miterlimit:10;stroke-width:5}
</style>
<g>
	<path class="st0" d="M367.9,85.3c0,0.3-0.2,0.7-0.4,0.9"/>
	<path class="st0" d="M367.9,85.1c0,0.1,0,0.1,0,0.2"/>
	<path class="st0" d="M367.9,76.7c0-0.4,0.1-0.7,0.4-1"/>
	<path class="st0" d="M280.1,75.1C280.1,75.1,280.1,75.1,280.1,75.1C280,75.1,280,75.1,280.1,75.1c-0.1,0-0.1,0-0.1,0c0,0,0,0,0,0"
		/>
	<path class="st0" d="M323.3,75.1C323.3,75.1,323.2,75.1,323.3,75.1c-0.1,0-0.1,0-0.1,0c0,0,0,0,0,0"/>
	<path class="st0" d="M366.3,86.7c0.2,0,0.5-0.1,0.7-0.2l0.8-1.4c0,0.1,0,0.1,0,0.1c0,0,0,0,0,0c0,0,0,0,0,0c0,0,0,0.1,0,0.1
		c0,0,0,0,0,0.1c0,0,0,0,0,0c0,0,0,0,0,0c0,0,0,0,0,0c0,0,0,0,0,0c0,0,0,0,0,0.1c0,0,0,0,0,0.1c0,0,0,0,0,0c0,0,0,0,0,0c0,0,0,0,0,0
		c0,0,0,0,0,0c0,0,0,0,0,0.1c0,0,0,0,0,0.1c0,0,0,0,0,0.1c0,0,0,0,0,0c0,0,0,0,0,0c0,0,0,0-0.1,0.1c0,0-0.1,0.1-0.1,0.1
		c0,0-0.1,0.1-0.1,0.1c-0.1,0.1-0.2,0.1-0.3,0.1C366.7,86.6,366.5,86.7,366.3,86.7h-40.1c-0.4,0-0.8-0.2-1.1-0.5
		c-0.3-0.3-0.5-0.7-0.5-1.1v-8.5c0-0.7-0.5-1.4-1.3-1.5c-0.1,0-0.2,0-0.3,0"/>
	<path class="st0" d="M443.5,206.9c-5,0-10.1,0-15.1,0c-14.6,0-29.1,0-43.7,0c-7.3,0-14.5,0-21.8,0c-0.8,0-1.7,0-2.5,0"/>
	<path class="st0" d="M605.8,54.9c-0.5,0-1,0.2-1.4,0.6c-0.4,0.4-0.6,0.9-0.6,1.4"/>
	<line class="st0" x1="605.8" y1="54.9" x2="605.8" y2="54.9"/>
	<path class="st0" d="M603.8,56.9c-0.2,15.8-0.4,31.7-0.7,47.5"/>
	<path class="st0" d="M680.9,104.4l-0.2-14.1c0-1.1-0.9-2-2.1-2h-14.1c-0.5,0-1.1-0.2-1.5-0.6c-0.4-0.4-0.6-0.9-0.6-1.5V74.9
		c0-0.5-0.2-1.1-0.6-1.5c-0.4-0.4-0.9-0.6-1.5-0.6h-14.2c-0.5,0-0.9-0.1-1.3-0.4c-0.1-0.1-0.1-0.1-0.2-0.2c-0.2-0.2-0.3-0.4-0.4-0.6
		c0-0.1-0.1-0.1-0.1-0.2c-0.1-0.2-0.1-0.5-0.1-0.7V56.9c0-0.5-0.2-1.1-0.6-1.5c-0.4-0.4-0.9-0.6-1.5-0.6h-2.9h-29.7
		c-1.3,0-2.5,0-3.8,0h0c-0.6,0-1.1,0-1.7,0c-0.9,0-1.9,0-2.8,0c0,0,0,0-0.1,0c0,0,0,0-0.1,0c0,0-0.1,0-0.1,0c-0.1,0-0.2,0-0.3,0
		c-0.1,0-0.2,0-0.3,0.1c-0.3,0.1-0.5,0.3-0.7,0.4c-0.4,0.4-0.6,0.9-0.6,1.4c0,1.8-0.1,3.6-0.1,5.4l-0.1,4.6
		c-0.2,12.5-0.4,25-0.7,37.5"/>
	<path class="st0" d="M676.8,206.9c-2.6,8.9-10.4,12.8-19,12.8c-11.9,0-23.9,0-35.8,0c-5.5,0-11.7,0.8-17-1
		c-5.4-1.9-9.6-6.3-11.3-11.8"/>
	<path class="st0" d="M210.1,206.9c-2.1,6.9-8.3,12-15.4,12.7c-4.3,0.4-8.8,0.1-13.2,0.1c-4.3,0-8.6,0-13,0
		c-8.5,0-17.2,0.6-25.7-0.1c-7.3-0.5-13.8-5.7-15.9-12.8"/>
	<path class="st0" d="M612.5,42.1C612.6,42.1,612.6,42.1,612.5,42.1c0.1,0.1,0.1,0.2,0.2,0.3c0,0.1,0.1,0.2,0.1,0.3
		c0,0.2,0.1,0.4,0.1,0.6c0,0.4,0.1,0.9,0.1,1.3l0,10.3"/>
	<path class="st0" d="M604.1,54.9l0.2-10.3c0-0.7,0.3-1.3,0.8-1.8c0.2-0.2,0.5-0.4,0.9-0.6c0.2-0.1,0.3-0.1,0.5-0.1
		c0.1,0,0.1,0,0.2,0c0.1,0,0.1,0,0.2,0c0,0,0.1,0,0.1,0l0.1,0c1.9,0,3.8,0,5.7,0h22.6c0.5,0,0.9,0,1.4,0c0.2,0,0.4,0,0.6,0.1
		c0.7,0.3,1.9,0.7,1.9,2.4l0.2,10.3"/>
	<line class="st0" x1="281" y1="75.6" x2="281" y2="75.6"/>
	<path class="st0" d="M368.1,75.8c-0.2,0.3-0.3,0.5-0.3,0.8"/>
	<path class="st0" d="M368.3,75.6c0.2-0.2,0.4-0.4,0.7-0.4"/>
	<path class="st0" d="M368.9,75.2c0.2,0,0.3-0.1,0.5-0.1"/>
	<line class="st0" x1="281.9" y1="75.4" x2="281.9" y2="75.4"/>
	<path class="st0" d="M367.5,75.6C367.5,75.6,367.4,75.6,367.5,75.6c-0.1,0-0.1,0-0.2,0c0,0,0,0-0.1,0c0,0,0,0-0.1,0c0,0,0,0,0,0
		c0,0,0,0,0,0c0,0,0,0,0,0c0,0,0,0,0,0c0,0,0.1-0.1,0.1-0.1c0,0,0,0,0,0"/>
	<line class="st0" x1="367.9" y1="75.6" x2="367.5" y2="75.6"/>
	<path class="st0" d="M453.8,75.4C453.8,75.4,453.8,75.4,453.8,75.4c-0.1,0-0.1,0.1-0.2,0.1c0,0,0,0,0,0c0,0,0,0,0,0c0,0,0,0,0,0
		c0,0,0,0,0,0c0,0,0,0,0.1,0c0,0,0,0,0.1,0c0,0,0,0,0.1,0c0,0,0.1,0,0.1,0c0.1,0,0.1,0,0.2,0l0,0c0,0,0.1,0,0.1,0c0,0,0.1,0,0.1,0
		c0,0,0.1,0,0.1-0.1s0.1,0,0.1-0.1c0,0,0.1,0,0.1-0.1c0,0,0,0,0,0c0,0,0.1,0,0.1-0.1c0,0,0.1,0,0.1-0.1c0,0,0,0,0.1,0c0,0,0,0,0.1,0
		c0,0,0,0,0.1,0s0,0,0.1,0c0,0,0,0,0,0c0,0,0,0,0,0c0,0,0,0,0,0c0,0,0,0,0,0c0,0,0.1,0,0.1,0c0,0,0,0,0,0c0,0,0,0,0,0c0,0,0,0,0,0
		c0,0,0,0,0,0"/>
	<line class="st0" x1="238.2" y1="75.6" x2="237.9" y2="75.6"/>
	<path class="st0" d="M281.8,75.6c0.1,0,0.1,0,0.2,0c0,0,0.1,0,0.1,0c0,0,0,0,0-0.1c0,0,0-0.1-0.1-0.1c0,0-0.1-0.1-0.1-0.1
		c0,0,0,0,0,0"/>
	<line class="st0" x1="281.8" y1="75.6" x2="281.4" y2="75.6"/>
	<line class="st0" x1="325" y1="75.6" x2="324.7" y2="75.6"/>
	<path class="st0" d="M196.2,88C196.2,88,196.2,88,196.2,88c0,0.1,0,0.2,0,0.2C196.2,88.1,196.2,88,196.2,88
		c0.2-0.8,0.8-1.3,1.5-1.3h39c0.4,0,0.8-0.2,1.1-0.5c0.3-0.3,0.5-1.1,0.5-1.1v-8.5c0-0.7,0.4-1.3,1.1-1.5c0.2,0,0.3-0.1,0.5-0.1"/>
	<path class="st0" d="M455.8,75.1c-0.2,0-0.3,0-0.5,0.1c-0.6,0.2-1.1,0.8-1.1,1.5v8.5c0,0.4-0.2,0.8-0.5,1.1
		c-0.3,0.3-0.7,0.5-1.1,0.5h-40.1c0,0,0,0,0,0c-0.4,0-0.8-0.2-1.1-0.5s-0.5-0.7-0.5-1.1v-8.5c0-0.4-0.2-0.9-0.5-1.2
		c-0.1,0-0.1-0.1-0.2-0.1l0.1,0.1c0,0,0,0,0,0c0,0,0,0,0,0c0,0,0,0,0,0c0,0,0.1,0,0.1,0.1c0,0,0,0,0,0l-0.2-0.1c0,0-0.1,0-0.1-0.1
		c0,0,0,0,0,0s0,0,0,0c0,0,0,0,0,0s0,0,0,0c0,0,0,0-0.1,0c0,0,0,0-0.1,0c0,0,0,0,0,0c0,0,0,0,0,0c0,0-0.1,0-0.1,0c0,0,0,0,0,0
		c0,0,0,0,0,0c0,0,0,0,0,0c0,0,0,0,0,0c0,0,0,0,0,0c0,0,0,0,0,0c0,0,0,0,0,0c0,0,0,0,0,0"/>
	<path class="st0" d="M455.6,75.1C455.7,75.1,455.7,75.1,455.6,75.1c0.1,0,0.1,0,0.1,0c0,0,0,0,0,0c0,0,0,0,0,0c0,0,0,0,0,0"/>
	<path class="st0" d="M367.7,75.6c-0.1,0-0.1,0-0.2,0"/>
	<path class="st0" d="M280.1,75.1C280.1,75.1,280,75.1,280.1,75.1c-0.1,0-0.1,0-0.1,0c0,0,0,0,0,0c0,0,0,0,0,0c0,0,0,0,0,0
		c0,0,0,0,0,0"/>
	<path class="st0" d="M238.1,75.6c-0.1,0-0.1,0-0.2,0c-0.1,0-0.1,0-0.2,0c0,0-0.1,0-0.1,0c0,0,0,0,0-0.1c0,0,0-0.1,0.1-0.1
		c0,0,0.1-0.1,0.1-0.1c0,0,0,0,0,0"/>
	<path class="st0" d="M281.6,75.6c0.1,0,0.1,0,0.2,0"/>
	<path class="st0" d="M239.6,75.1C239.6,75.1,239.6,75.1,239.6,75.1C239.6,75.1,239.6,75.1,239.6,75.1
		C239.6,75.1,239.6,75.1,239.6,75.1C239.5,75.1,239.5,75.1,239.6,75.1c-0.1,0-0.1,0-0.2,0c0,0-0.1,0-0.1,0c0,0-0.1,0-0.1,0
		c0,0,0,0-0.1,0s0,0-0.1,0c0,0-0.1,0-0.1,0c0,0-0.1,0-0.1,0.1c0,0-0.1,0-0.1,0.1c0,0,0,0,0,0"/>
	<path class="st0" d="M280.1,75.1C280.1,75.1,280.1,75.1,280.1,75.1C280.1,75.1,280.1,75.1,280.1,75.1
		C280.1,75.1,280.1,75.1,280.1,75.1C280.1,75.1,280.1,75.1,280.1,75.1c0.1,0,0.1,0,0.2,0c0,0,0.1,0,0.1,0c0,0,0.1,0,0.1,0
		c0,0,0,0,0.1,0s0,0,0.1,0c0,0,0.1,0,0.1,0c0,0,0.1,0,0.1,0.1c0,0,0.1,0,0.1,0.1c0,0,0,0,0,0"/>
	<path class="st0" d="M411.2,75.6c0.2-0.1,0.3-0.3,0.4-0.5c14.1,0,28.1,0,42.2,0c0,0.2,0.1,0.4,0.4,0.5"/>
	<path class="st0" d="M368.4,75.1C368.4,75.1,368.4,75.1,368.4,75.1"/>
	<path class="st0" d="M369.2,75.1C369.2,75.1,369.2,75.1,369.2,75.1C369.2,75.1,369.2,75.1,369.2,75.1
		C369.2,75.1,369.2,75.1,369.2,75.1C369.2,75.1,369.2,75.1,369.2,75.1c-0.1,0-0.1,0-0.2,0c0,0,0,0,0,0c0,0,0,0,0,0c0,0,0,0,0,0
		c0,0,0,0,0,0c0,0,0,0-0.1,0s0,0-0.1,0c0,0,0,0-0.1,0c0,0,0,0-0.1,0c0,0-0.1,0-0.1,0.1c0,0-0.1,0-0.1,0.1c0,0,0,0,0,0"/>
	<path class="st0" d="M409.7,75.1C409.7,75.1,409.7,75.1,409.7,75.1C409.7,75.1,409.7,75.1,409.7,75.1
		C409.7,75.1,409.7,75.1,409.7,75.1C409.8,75.1,409.8,75.1,409.7,75.1c0.1,0,0.1,0,0.2,0c0,0,0,0,0,0c0,0,0,0,0,0c0,0,0,0,0,0
		c0,0,0,0,0,0c0,0,0,0,0.1,0s0,0,0.1,0c0,0,0,0,0.1,0c0,0,0,0,0.1,0c0,0,0.1,0,0.1,0.1c0,0,0.1,0,0.1,0.1c0,0,0,0,0,0
		c0,0,0.1,0,0.1,0.1c0,0,0.1,0,0.1,0.1s0.1,0,0.1,0.1c0,0,0.1,0,0.1,0c0,0,0.1,0,0.1,0c0,0,0,0,0,0c0.1,0,0.1,0,0.2,0
		c0,0,0.1,0,0.1,0c0,0,0.1,0,0.1,0c0,0,0,0,0.1,0c0,0,0,0,0.1,0c0,0,0,0,0,0c0,0,0,0,0,0c0,0,0,0,0,0c0,0,0,0,0,0
		c0,0-0.1-0.1-0.1-0.1c0,0,0,0,0,0"/>
	<path class="st0" d="M324.2,75.4C324.2,75.4,324.2,75.4,324.2,75.4c-0.1,0-0.1-0.1-0.2-0.1c0,0-0.1,0-0.1-0.1c0,0,0,0-0.1,0
		c0,0,0,0-0.1,0c0,0,0,0-0.1,0s0,0-0.1,0c0,0,0,0,0,0c0,0,0,0,0,0c0,0,0,0,0,0c0,0,0,0,0,0c0,0-0.1,0-0.1,0c0,0,0,0,0,0c0,0,0,0,0,0
		c0,0,0,0,0,0c0,0,0,0,0,0c0,0-0.1,0-0.1,0c0,0,0,0,0,0c0,0,0,0,0,0c0,0,0,0,0,0c0,0,0,0,0,0c0,0,0,0,0,0"/>
	<path class="st0" d="M325.1,75.4C325.1,75.4,325.1,75.4,325.1,75.4c0.1,0,0.1,0.1,0.2,0.1c0,0,0,0,0,0.1c0,0,0,0,0,0c0,0,0,0,0,0
		c0,0,0,0-0.1,0c0,0,0,0-0.1,0c0,0,0,0-0.1,0c0,0-0.1,0-0.1,0c-0.1,0-0.1,0-0.2,0c0,0,0,0,0,0c0,0,0,0,0.1,0"/>
	<path class="st0" d="M540.6,119.8l-1.5-43.1c0-0.8-0.7-1.5-1.5-1.5c0,0-38.1,0-38.1,0c0,0,0,0,0,0c0,0,0,0,0,0c0,0,0,0,0,0
		c0,0,0,0,0,0.1c0,0,0,0,0,0.1c0,0,0,0.1,0,0.1c0,0,0,0.1-0.1,0.1c0,0-0.1,0.1-0.1,0.1c0,0-0.1,0-0.1,0.1c0,0,0,0-0.1,0c0,0,0,0,0,0
		c0,0,0,0,0,0c0,0,0,0,0,0c0,0,0,0,0,0c0,0,0,0,0,0c0,0-0.1,0-0.1,0c-0.1,0-0.1-0.1-0.1-0.1c0,0-0.1-0.1-0.1-0.1c0,0,0-0.1,0-0.1
		c0,0,0-0.1,0-0.1c0,0,0,0,0,0c0,0,0,0,0,0c0,0,0,0,0,0c0,0,0,0,0,0c0,0,0,0,0,0c0,0,0,0,0,0h-42.7h42.5c0,0,0,0,0,0c0,0,0,0,0,0
		c0,0,0,0,0,0c0,0,0,0,0.1,0c0,0,0.1,0,0.1,0l1,0c0,0,0,0,0,0c0,0,0,0,0,0h-43.9H455c0,0,0,0,0,0c0,0,0,0,0,0c0,0,0,0,0,0
		c0,0,0,0-0.1,0c0,0-0.1,0-0.1,0c0,0.1,0,0.2-0.1,0.2"/>
	<path class="st0" d="M360.4,206.9c2.3,7.6,9.3,12.6,17.2,12.8c7.3,0.2,14.6,0,21.8,0c9,0,17.9,0.2,26.9,0
		c7.9-0.2,14.9-5.2,17.2-12.8"/>
	<path class="st0" d="M367.9,76.7v20c0,0.4-0.2,0.8-0.5,1.1c-0.3,0.3-0.7,0.5-1.1,0.5h-40.1c-0.6,0-1.1-0.3-1.4-0.8
		c-0.1-0.2-0.2-0.5-0.2-0.7v-8.5c0-0.8-0.7-1.5-1.5-1.5H283c-0.4,0-0.8-0.2-1.1-0.5c-0.3-0.3-0.5-0.7-0.5-1.1v-8.5
		c0-0.7-0.5-1.4-1.3-1.5c-0.1,0-0.2,0-0.3,0"/>
	<path class="st0" d="M145.5,104.4c6.8,4.4,13.6,8.9,20.4,13.3c0.9,0.6,2,1.7,3.1,2c1.1,0.4,2.8,0.1,3.9,0.1c2.7,0,5.3,0,8,0
		c10.2,0,20.3,0,30.5,0c42.1,0,84.1,0,126.2,0c42.6,0,85.3,0,127.9,0c21.2,0,42.3,0,63.5,0c10.5,0,21,0,31.5,0
		c1.9,0,4.4,0.4,6.3-0.1c2.1-0.6,4.5-2.9,6.4-4.2c4.3-2.9,8.7-5.7,13-8.6c1.8-1.2,3.1-2.4,5.2-2.5c2.3-0.1,4.7,0,7,0
		c5.1,0,10.3,0,15.4,0c10.7,0,21.3,0,32,0c19.1,0,38.2,0,57.3,0c1.5,0,3,0,4.5,0c-0.7,19-1.3,38-2,57c-0.2,7.1-0.5,14.1-0.7,21.2
		c-0.2,5.8-0.4,11.5-0.6,17.3c-0.1,2.6-0.3,5.3-3,6.6c-2.7,1.3-7.1,0.5-9.9,0.5c-52.5,0-105,0-157.5,0c-35.2,0-70.4,0-105.6,0
		c-22.1,0-44.2,0-66.2,0c-0.5,0-1,0-1.5,0c-60.6,0-121.2,0-181.9,0c-29.7,0-59.4,0-89,0c-13.8,0-27.7,0-41.5,0
		c-3.4,0-8.3,1-10.3-2.6c-1.3-2.3-1.8-5.3-2.7-7.7c-0.9-2.4-1.9-4.8-2.8-7.1c-10.5-27.2-16.1-56.2-19.9-85.1c21.5,0,42.9,0,64.4,0
		c12,0,24,0,36,0c5.7,0,11.5,0,17.2,0c2.7,0,5.5,0,8.2,0H145.5z"/>
	<path class="st0" d="M195.1,119.8l1.1-31.6L195.1,119.8l1.1-31.6c0,0,0,0,0,0c0,0,0,0,0,0c0,0,0,0,0,0c0,0,0,0,0-0.1
		c0-0.1,0-0.2,0-0.3c0-0.1,0-0.3,0-0.4c0-0.3,0-0.5,0-0.8c0-0.5,0-1,0.1-1.5l0.3-8.5c0-0.2,0.1-0.5,0.2-0.7c0,0,0-0.1,0.1-0.1
		c0.1-0.2,0.2-0.3,0.4-0.4c0.1-0.1,0.3-0.2,0.5-0.2c0.1,0,0.3-0.1,0.4-0.1h38.6c0.3,0,0.7,0,1,0c0,0,0,0,0,0c0,0,0,0,0,0
		c0,0,0,0,0,0c0,0,0,0,0,0c0,0,0,0,0,0c0,0,0,0,0,0c0,0,0,0,0,0.1c0,0,0,0,0,0.1c0,0,0,0,0,0c0,0,0,0,0,0c0,0.1,0.1,0.1,0.1,0.2
		c0,0,0.1,0.1,0.2,0.1c0,0,0,0,0,0c0.1,0,0.1,0,0.2,0c0,0,0.1,0,0.1,0c0,0,0.1,0,0.1,0c0,0,0.1,0,0.1-0.1c0,0,0,0,0.1-0.1
		c0,0,0-0.1,0.1-0.1c0,0,0,0,0,0c0-0.1,0.1-0.1,0.1-0.2c0,0,0.1,0,0.1,0c0,0,0,0,0.1,0c0,0,0,0,0,0c0,0,0,0,0,0c0,0,0,0,0,0h0.6
		c0,0,0.1,0,0.1,0c0,0,0,0,0,0c0,0,0,0,0,0c0,0,0,0,0,0c0,0,0,0,0,0h40.1h0.2h0.6c0,0,0,0,0,0c0,0,0,0,0,0c0,0,0,0,0,0
		c0,0,0,0,0.1,0c0,0,0.1,0,0.1,0c0,0.1,0,0.2,0.1,0.2c0,0,0,0,0,0c0,0,0,0.1,0.1,0.1c0,0,0,0,0.1,0.1c0,0,0.1,0.1,0.1,0.1
		c0,0,0.1,0,0.1,0c0,0,0.1,0,0.1,0c0.1,0,0.1,0,0.2,0c0,0,0,0,0,0c0.1,0,0.1,0,0.2-0.1c0.1,0,0.1-0.1,0.1-0.2c0,0,0,0,0,0
		c0,0,0,0,0,0c0,0,0,0,0-0.1c0,0,0,0,0-0.1c0,0,0,0,0,0c0,0,0,0,0,0c0,0,0,0,0,0c0,0,0,0,0,0c0,0,0,0,0,0c0,0,0,0,0,0
		c0.3,0,0.7,0,1,0h40.1h0.2h0.6c0,0,0,0,0,0c0,0,0,0,0,0c0,0,0,0,0,0c0,0,0,0,0.1,0c0,0,0.1,0,0.1,0c0,0.1,0,0.2,0.1,0.2
		c0,0,0,0,0,0c0,0,0,0,0,0.1c0,0,0,0,0.1,0.1c0,0,0.1,0.1,0.1,0.1c0,0,0.1,0,0.1,0c0,0,0.1,0,0.1,0c0.1,0,0.1,0,0.2,0c0,0,0,0,0,0
		c0.1,0,0.1,0,0.2-0.1c0.1,0,0.1-0.1,0.1-0.2c0,0,0,0,0,0c0,0,0,0,0,0c0,0,0,0,0-0.1c0,0,0,0,0-0.1c0,0,0,0,0,0c0,0,0,0,0,0
		c0,0,0,0,0,0c0,0,0,0,0,0c0,0,0,0,0,0c0,0,0,0,0,0c0.3,0,0.7,0,1,0h40.1c0.3,0,0.7,0,1,0c0,0,0,0,0,0c0,0,0,0,0,0c0,0,0,0,0,0.1
		c0,0,0,0.1,0,0.1c0,0,0,0,0,0c0,0,0,0,0,0c0,0.1,0.1,0.1,0.1,0.2c0,0,0.1,0.1,0.2,0.1c0,0,0,0,0,0c0.1,0,0.1,0,0.2,0
		c0,0,0.1,0,0.1,0c0,0,0.1,0,0.1,0c0,0,0.1,0,0.1-0.1c0,0,0,0,0.1-0.1c0,0,0-0.1,0.1-0.1c0,0,0,0,0,0c0-0.1,0.1-0.1,0.1-0.2
		c0,0,0.1,0,0.1,0c0,0,0,0,0.1,0c0,0,0,0,0,0c0,0,0,0,0,0c0,0,0,0,0,0c0,0,0.6,0,0.6,0c0,0,0.1,0,0.1,0c0,0,0,0,0,0c0,0,0,0,0,0
		c0,0,0,0,0,0c0,0,0,0,0,0h40.1c0,0,0,0,0,0c0,0,0,0,0,0c0,0,0,0,0,0c0,0,0,0,0,0c0,0,0.1,0,0.1,0h0.6c0,0,0,0,0,0c0,0,0,0,0,0
		c0,0,0,0,0,0c0,0,0,0,0.1,0c0,0,0.1,0,0.1,0c0,0.1,0,0.2,0.1,0.2"/>
	<line class="st0" x1="602.2" y1="62.3" x2="602.2" y2="62.3"/>
	<line class="st0" x1="602.2" y1="62.3" x2="602.2" y2="62.3"/>
	<path class="st0" d="M599,66.9c0.1,0,0.2,0,0.4,0c0-1.5,0.1-3.1,0.1-4.6c-0.2,0-0.3,0-0.4,0h0c-0.1,0-0.1,0-0.1,0
		c0,1.5-0.1,3.1-0.1,4.6C598.9,66.9,598.9,66.9,599,66.9"/>
	<path class="st0" d="M603.5,62.3c0,1.5,0,3.1-0.1,4.6l-1.2,0c0.4,0,0.6,0,1,0l0.1,0c-0.5,0-0.9,0-1.3,0c0-1.5,0.1-3.1,0.1-4.6
		C602.6,62.3,603,62.3,603.5,62.3C603.5,62.3,603.5,62.3,603.5,62.3L603.5,62.3C603.5,62.3,603.5,62.3,603.5,62.3L603.5,62.3z"/>
	<path class="st0" d="M600.2,66.9l-0.1,0l0.1-4.6c0,1.5-0.1,3.1-0.1,4.6c0.2,0,0.5,0,0.9,0c0-1.5,0.1-3.1,0.1-4.6
		c-0.3,0-0.6,0-0.9,0"/>
	<path class="st0" d="M600,66.9c0-1.5,0.1-3.1,0.1-4.6c-0.2,0-0.5,0-0.6,0c0,0,0,0,0,0c0,1.5-0.1,3.1-0.1,4.6
		C599.6,66.9,599.8,66.9,600,66.9z"/>
	<path class="st0" d="M602.1,66.9c-0.4,0-0.8,0-1.1,0c0-1.5,0.1-3.1,0.1-4.6c0,0,0,0,0,0c0,0,0,0,0,0c0.3,0,0.7,0,1.1,0
		C602.1,63.8,602.1,65.3,602.1,66.9C602.1,66.9,602.1,66.9,602.1,66.9z"/>
</g>
</svg>
