<?xml version="1.0" encoding="utf-8"?>
<!-- Generator: Adobe Illustrator 22.1.0, SVG Export Plug-In . SVG Version: 6.00 Build 0)  -->
<svg version="1.1" id="Layer_1" xmlns="http://www.w3.org/2000/svg" xmlns:xlink="http://www.w3.org/1999/xlink" x="0px" y="0px"
	 viewBox="0 0 719.6 262.1" style="enable-background:new 0 0 719.6 262.1;" xml:space="preserve">
<style type="text/css">
	.st0{fill:none;stroke:#FFFFFF;stroke-miterlimit:10;stroke-width:5}
</style>
<g>
	<path class="st0" d="M128.5,130.1c0.2,0,0.4,0,0.5-0.1"/>
	<line class="st0" x1="656.8" y1="101" x2="656.8" y2="101"/>
	<path class="st0" d="M513.7,122c0.2-6.5,0.5-12.9,0.7-19.4c0.2-4.5,0.3-9,0.5-13.5c0.1-2-0.2-4.3,0.3-6.2c0.8-3.6,7.8-2.3,10.5-2.3
		c2.2,0,4.4,0,6.5,0c1.5,0,2.9-0.2,4.1,0.8c1.7,1.5,3.1,3.8,4.5,5.5c2.9,3.6,5.8,7.3,8.7,10.9c2.3,2.8,4.8,5.6,6.9,8.6
		c1.8,2.5,1,7.1,1.1,10.1"/>
	<path class="st0" d="M312.1,91.6c0.2-12.8,0.4-25.6,0.7-38.4c0-2.2-0.6-6.6,2.8-6.6c14.3-0.2,28.5,0,42.8,0c3.1,0,2.8,3.4,2.8,5.6
		c0.1,3.3,0.1,6.6,0.2,9.9c0.1,8,0.3,15.9,0.4,23.9c0,1.9,0.1,3.8,0.1,5.7"/>
	<path class="st0" d="M483.8,201.6c2.2,7.5,9.1,13.1,16.9,13.7c4.4,0.4,8.9,0.1,13.3,0.1c4.8,0,9.6,0,14.4,0s9.6,0,14.4,0
		c4.4,0,8.9,0.3,13.3-0.1c7.9-0.6,14.7-6.2,16.9-13.7"/>
	<path class="st0" d="M170.6,201.6c-2.2,7.5-9.1,13.1-16.9,13.7c-4.4,0.4-8.9,0.1-13.3,0.1c-4.8,0-9.6,0-14.4,0c-4.8,0-9.6,0-14.4,0
		c-4.4,0-8.9,0.3-13.3-0.1c-7.9-0.6-14.7-6.2-16.9-13.7"/>
	<path class="st0" d="M686.7,198.3c-41.2,0-82.3,0-123.5,0c-52.7,0-105.5,0-158.2,0c-53,0-105.9,0-158.9,0c-49.3,0-98.6,0-147.8,0
		c-25.5,0-50.9,0-76.4,0c-0.4,0-0.8,0-1.2,0"/>
	<path class="st0" d="M691.9,128.2c-21.4,1.6-42.7,4.5-64.1,6.3c-23,2-46.1,3.3-69.2,4.5c-45.8,2.2-91.7,3.4-137.5,4.3
		c-45.8,0.9-91.6,1.8-137.4,1.7c-43.7-0.1-87.4-1.1-131.1-3.6c-22.9-1.3-45.7-3.3-68.4-6.1c-20.6-2.5-41-5.8-61.5-9
		c-3.3-0.5-6.5-1-9.8-1.4"/>
	<path class="st0" d="M707.5,91.7c-2.1,6.9-6.3,12.8-9.9,18.9c-1.8,3-3.5,6-4.5,9.3c-1.2,3.7-1.1,7.8-1.2,11.7
		c-0.7,18.1-1.7,36.3-3.6,54.4c-0.3,3-0.7,5.9-1,8.9c-0.3,2.3,0,6.7-3.2,6.7c-42,0-84,0-125.9,0c-44,0-88,0-132.1,0
		c-44.2,0-88.3,0-132.5,0c-43.1,0-86.2,0-129.3,0c-42.5,0-85.1,0-127.6,0c-4.4,0-8.8,0-13.1,0c-2.1,0-2.7-1.8-2.8-3.6
		c-0.2-4-0.2-8-0.4-11.9c-0.4-9-1.1-18.1-2-27.1c-1.3-12.4-3-25-6.1-37.1c0.6,0.6,3.2,0.5,4.1,0.7l0,0c0,0,0,0,0,0
		c49.8,8.2,99.9,14.7,150.3,17.1c51,2.5,102.1,1.6,153.1-0.9c49.6-2.4,99.1-6.5,148.5-11.7c44.7-4.7,89.2-10.2,133.6-17
		c31.1-4.8,62.1-10.2,93-16c2.8-0.5,5.6-1.1,8.4-1.6C704.5,92.2,706.1,91.7,707.5,91.7z"/>
	<path class="st0" d="M345.1,215.4c8.4,0,16.1-5.7,18.5-13.8h0c-1.7,5.7-6.1,10.4-11.7,12.5c-3.1,1.2-6.2,1.2-9.5,1.2
		c-3.8,0-7.5,0-11.3,0c-12.8,0-25.6,0-38.4,0c-8.4,0-16.1-5.7-18.5-13.8h0c2.4,8.1,10,13.8,18.5,13.8"/>
	<path class="st0" d="M117.1,136.2c0-2.1-0.7-5.4,2-6c1.1-0.2,2.5,0,3.6,0c1.9,0,3.8,0,5.8,0c8.4,0,16.7,0,25.1,0
		c16.6,0,33.2,0,49.8,0c4.3,0,8.7,0,13,0c1.3,0,3.2,0.4,4.4-0.2c1.8-0.8,1.4-3.1,1.4-4.7c0-8.4,0-16.9,0-25.3c0-8.4,0-16.7,0-25.1
		c0-2.1,0-4.2,0-6.2c0-1.8-0.1-3.8,2-4.4c1.8-0.5,4.3-0.1,6.1-0.1c2.1,0,4.2,0,6.3,0c17,0,34.1,0,51.1,0c1.7,0,4.3-0.5,5.7,0.6
		c1.6,1.2,1.1,3.5,1.1,5.3c0,4.1,0,8.2,0,12.3c0,3.6-1.4,9.3,3.6,9.4c4,0.1,8.1,0,12.1,0c16.6,0,33.1,0,49.7,0c4.2,0,8.5,0,12.7,0
		c1.8,0,3.9,0.1,4.5-2c0.5-1.8,0.1-4.2,0.1-6.1c0-4.3,0-8.6,0-12.9c0-1.9,0-3.9,0-5.8c0-1.8-0.5-4.5,1.1-5.7
		c1.4-1.1,3.6-0.6,5.3-0.6c2.3,0,4.5,0,6.8,0c4.2,0,8.4,0,12.7,0c8.4,0,16.9,0,25.3,0c2.1,0,4.2,0,6.3,0c2,0,4.7-0.5,6.6,0.1
		c1.9,0.5,2,2.3,2,4c0,2.2,0,4.4,0,6.5c0,1.9,0,3.8,0,5.7c0,1.8-0.5,4.4,1.4,5.4c1.4,0.8,3.8,0.4,5.4,0.4c2.2,0,4.4,0,6.6,0
		c2.8,0,5.5,0,8.3,0c5.8,0,0.9,17.4,3.2,20.8c1.2,1.7,3.7,1.2,5.5,1.2c2.9,0,5.8,0,8.6,0c2.4,0,4.9,0,7.3,0c1.3,0,3-0.3,4.3,0.3
		c2.4,1.2,1.6,5.7,1.6,7.8c0.1,4.4,0.2,8.9,0.2,13.3"/>
	<path class="st0" d="M222.2,91.8c-0.1,1.7-1.6,2.2-3.1,2.2c-4.7,0.1-9.7-0.6-14.3,1c-4.3,1.5-8.6,3.1-12.9,4.6
		c-17.3,6.2-34.6,12.4-51.9,18.6c-2.3,0.8-4.7,1.5-6.9,2.5c-1.3,0.5-2.1,1.2-2.3,2.8c-0.2,1.9,0.8,5.9-1.8,6.6"/>
</g>
</svg>
